<?xml version="1.0" standalone="no"?>
<!DOCTYPE svg PUBLIC "-//W3C//DTD SVG 20010904//EN"
 "http://www.w3.org/TR/2001/REC-SVG-20010904/DTD/svg10.dtd">
<svg version="1.0" xmlns="http://www.w3.org/2000/svg"
 width="512.000000pt" height="512.000000pt" viewBox="0 0 512.000000 512.000000"
 preserveAspectRatio="xMidYMid meet">
<metadata>
Created by potrace 1.14, written by Peter Selinger 2001-2017
</metadata>
<g transform="translate(0.000000,512.000000) scale(0.100000,-0.100000)"
fill="#000000" stroke="none">
<path d="M2428 5045 c-2 -1 -41 -5 -88 -9 -267 -20 -584 -111 -833 -237 -256
-130 -472 -291 -678 -507 -120 -126 -143 -168 -137 -254 4 -59 3 -61 -56 -153
-34 -51 -68 -106 -77 -122 -13 -23 -26 -32 -56 -36 -61 -10 -96 -53 -143 -175
-45 -115 -103 -306 -119 -392 -25 -130 -30 -162 -40 -260 -9 -84 -8 -442 2
-490 3 -14 8 -47 12 -75 12 -96 17 -121 37 -205 36 -158 111 -362 188 -515 68
-135 180 -319 227 -370 10 -11 30 -36 44 -55 143 -189 443 -446 654 -559 46
-24 104 -27 143 -7 24 12 32 11 76 -10 28 -13 56 -24 63 -24 7 0 13 -4 13 -10
0 -5 8 -10 18 -10 10 0 22 -3 26 -8 4 -4 11 -7 14 -8 37 -3 97 -32 111 -53 20
-32 61 -71 73 -71 5 0 7 -3 5 -7 -3 -5 5 -9 16 -10 23 -2 60 -10 65 -13 1 -2
8 -3 15 -4 6 -1 11 -8 9 -16 -2 -10 0 -11 11 -1 10 7 23 8 38 3 13 -5 30 -7
37 -5 6 3 12 1 12 -4 0 -5 14 -8 30 -7 17 1 32 -2 35 -7 3 -4 12 -6 20 -2 8 3
15 1 15 -4 0 -5 16 -7 36 -5 27 3 35 1 29 -8 -6 -9 -3 -9 12 -1 11 6 23 8 26
5 18 -18 413 -18 536 0 20 3 56 8 81 12 25 3 50 7 55 8 103 23 127 26 136 20
7 -4 9 -3 6 3 -3 5 30 18 76 30 45 12 91 24 101 29 15 6 17 4 11 -7 -4 -8 2
-4 14 9 24 25 50 28 71 10 12 -11 12 -10 2 4 -11 14 -8 18 20 27 18 6 36 11
40 11 5 0 24 9 44 20 19 11 40 17 46 14 7 -4 8 -2 4 4 -5 8 0 12 13 12 10 0
21 4 23 8 2 4 28 21 58 36 209 107 385 238 566 421 154 154 195 212 202 284 3
29 14 59 31 81 36 47 82 122 122 197 17 35 39 63 46 63 26 0 73 41 93 80 30
59 86 214 119 330 39 140 57 233 80 415 9 70 7 452 -2 490 -3 11 -8 45 -12 75
-82 658 -484 1281 -1058 1640 -108 67 -140 79 -187 72 -64 -9 -84 -5 -195 41
-60 26 -115 47 -122 47 -6 0 -26 20 -44 45 -45 63 -83 83 -202 110 -108 25
-126 28 -302 51 -48 6 -351 14 -357 9z"/>
<path d="M3836 513 c-6 -14 -5 -15 5 -6 7 7 10 15 7 18 -3 3 -9 -2 -12 -12z"/>
<path d="M1106 478 c3 -5 10 -6 15 -3 13 9 11 12 -6 12 -8 0 -12 -4 -9 -9z"/>
<path d="M3396 407 c3 -10 9 -15 12 -12 3 3 0 11 -7 18 -10 9 -11 8 -5 -6z"/>
<path d="M4070 359 c0 -5 5 -7 10 -4 6 3 10 8 10 11 0 2 -4 4 -10 4 -5 0 -10
-5 -10 -11z"/>
<path d="M1150 320 c0 -5 5 -10 10 -10 6 0 10 5 10 10 0 6 -4 10 -10 10 -5 0
-10 -4 -10 -10z"/>
<path d="M2870 321 c0 -6 4 -13 10 -16 6 -3 7 1 4 9 -7 18 -14 21 -14 7z"/>
<path d="M3310 320 c0 -5 5 -10 10 -10 6 0 10 5 10 10 0 6 -4 10 -10 10 -5 0
-10 -4 -10 -10z"/>
<path d="M2986 242 c-3 -5 1 -9 9 -9 8 0 12 4 9 9 -3 4 -7 8 -9 8 -2 0 -6 -4
-9 -8z"/>
<path d="M2596 153 c-6 -14 -5 -15 5 -6 7 7 10 15 7 18 -3 3 -9 -2 -12 -12z"/>
</g>
</svg>
